<svg xmlns="http://www.w3.org/2000/svg" width="1167.95" height="283.403" viewBox="0 0 1167.95 283.403">
  <path id="Unión_1" data-name="Unión 1" d="M991.412,255.173q-26.88-27.832-26.88-79.1,0-48.047,30.982-78.882t79.615-30.835q45.263,0,72.07,27.247t26.807,75q0,53.028-30.176,83.716t-79.394,30.688Q1018.291,283.006,991.412,255.173Zm38.745-163.247q-17.285,11.509-25.415,33.278a131.963,131.963,0,0,0-8.13,46.544q0,48.376,21.167,72.639t53.54,24.262q21.387,0,37.939-11.288t25.049-33.058q8.5-21.769,8.5-48.156,0-33.133-10.84-54.977t-26.807-31.3a72.508,72.508,0,0,0-75,2.053ZM246.173,207.111,166.046,110.7l.733,86.593q.733,56.847,1.612,60.658a8.64,8.64,0,0,0,2.636,4.541q3.222,2.932,21.827,6.154,2.2.293,6.592,1.319v8.643Q177.032,277,161.652,277q-12.891,0-44.971,1.611v-8.643q5.127-1.172,7.763-1.758,17.578-3.077,20.362-5.713a7.972,7.972,0,0,0,2.344-4.541q1.465-6.738,2.051-50.977.733-62.7.733-74.12,0-36.769-1.026-40.87a7.535,7.535,0,0,0-3.808-4.907Q141.876,85.105,117.413,81q-2.637-.439-7.91-1.611V70.75q18.557,1.612,29.226,1.611,8.622,0,30.833-1.611l41.6,52q5.712,6.885,88.183,106.787.147-20.508.147-29.736,0-21.827-1.319-79.834-.586-27.1-1.391-29.443a9.075,9.075,0,0,0-3.369-4.248q-2.564-1.9-20.434-5.274-2.345-.439-6.885-1.611V70.75q26.074,1.612,41.455,1.611,14.942,0,41.308-1.611v8.643Q344.9,80.419,343,80.711q-19.629,4.1-21.826,5.42a6.838,6.838,0,0,0-2.637,2.637q-1.465,2.344-2.051,8.789-.146,2.784-.659,39.917t-.513,71.851q0,41.016,1.465,69.287l-9.522,4.395Zm652,69.89q-20.508,0-48.487,1.611v-8.643q5.713-1.465,8.643-2.05,17.871-3.37,20.435-4.761a7.011,7.011,0,0,0,3.443-3.882q1.319-4.248,1.318-23.73V107.664q-13.319,26.367-60.152,127Q810.5,262.352,804.347,277H796q-32.782-72.8-80.348-169.336l1.9,136.523q0,16.261,2.637,18.6t22.119,5.713q2.2.439,6.738,1.464v8.643Q723.712,277,708.038,277t-41.455,1.611v-8.643a56.438,56.438,0,0,1,6.3-1.464q19.336-3.81,21.68-6.592,3.515-4.1,3.662-20.068l.733-32.959q.732-45.117.733-87.451l-.147-17.871q0-10.693-1.318-13.4a7.73,7.73,0,0,0-4.248-3.882q-5.566-2.2-24.9-5.127-2.784-.439-8.2-1.758V70.75q24.467,1.612,37.214,1.611,14.5,0,31.206-1.611,5.994,15.39,9.65,23.451,4.825,10.847,38.159,82.226,14.182,30.341,28.656,59.214l62.517-131.62q5.711-12.165,13.616-33.27,19.638,1.612,30.043,1.611,9.673,0,32.68-1.611v8.643q-4.394,1.172-6.592,1.611-20.362,4.1-22.705,6.007-3.808,2.93-3.809,14.794v1.9l-.586,46.436q0,87.6.733,106.348.146,3.955,2.271,5.86t24.975,6.3a58.582,58.582,0,0,1,5.713,1.319v8.643Q918.243,277,898.175,277Zm-290.918,0q-22.559,0-49.512,1.611v-8.643a52.8,52.8,0,0,1,6.445-1.464q20.8-3.37,23.8-6.226t3-14.429l-.292-7.324.439-53.76q0-82.91-.439-91.7a10.6,10.6,0,0,0-3.135-7.47q-2.844-2.638-22.1-6.3-2.626-.586-7.729-1.9V70.75q31.834,1.612,49.734,1.611,19.953,0,45.334-1.611v8.643Q647.687,80.564,645.2,81q-19.483,3.37-22.559,6.372t-3.076,13.4v5.127l-.733,58.886.439,85.547q0,10.255,3,13.037t20.581,4.834q3.368.44,9.815,1.758v8.643Q629.083,277,607.257,277Zm-159.229,0q-21.533,0-44.092,1.611v-8.643q5.127-1.318,7.764-1.758,20.068-3.37,23.144-5.713a7.105,7.105,0,0,0,1.977-3.3q.659-2.124,1.1-32.446.586-46.875.586-69.433,0-39.405-.586-69.434H403.058l-6.3.147q-8.35,0-10.986,1.758-4.1,2.491-7.324,10.547-2.491,6.152-7.618,27.539H359.552q2.784-25.489,4.981-57.129,64.838,1.612,92.5,1.611,22.98,0,83.721-1.611,1.9,32.666,4.394,57.129H534.161q-6.869-26.807-8.915-31.421a12.956,12.956,0,0,0-5.92-6.592q-3.873-1.978-19.659-1.977H467.218q-1.172,38.965-1.172,96.386,0,53.321,1.172,72.071.293,4.394,2.2,6.006,2.491,2.051,24.17,6.3,2.051.293,6.152,1.319v8.643Q470.733,277,448.028,277ZM57.062,277Q34.5,277,7.55,278.611v-8.643a52.8,52.8,0,0,1,6.445-1.464q20.8-3.37,23.8-6.226t3-14.429l-.292-7.324.439-53.76q0-82.91-.439-91.7a10.607,10.607,0,0,0-3.135-7.47q-2.844-2.638-22.1-6.3-2.626-.586-7.729-1.9V70.75q31.834,1.612,49.733,1.611,19.954,0,45.335-1.611v8.643Q97.491,80.564,95,81q-19.483,3.37-22.559,6.372t-3.076,13.4v5.127l-.733,58.886.439,85.547q0,10.255,3,13.037t20.58,4.834q3.37.44,9.815,1.758v8.643Q78.888,277,57.062,277ZM660.5,54.5v-7h514v7ZM63.36,51.854A616.65,616.65,0,0,0,21.905,3.514L23.956.731q13.33.293,14.355.293,5.127,0,15.381-.293Q62.042,24.9,72,51.854Z" transform="translate(-7.05 -0.221)" fill="#fff" stroke="rgba(0,0,0,0)" stroke-width="1"/>
</svg>
