<svg xmlns="http://www.w3.org/2000/svg" width="1175.95" height="385.598"><path d="M765.368 379.413q-5.376-5.566-5.376-15.82 0-9.609 6.2-15.776t15.923-6.167q9.052 0 14.413 5.449t5.361 15q0 10.606-6.034 16.744t-15.88 6.137q-9.232-.001-14.607-5.567zm7.749-32.649a13.312 13.312 0 0 0-5.083 6.655 26.4 26.4 0 0 0-1.625 9.309q0 9.675 4.234 14.528a13.593 13.593 0 0 0 10.707 4.853 13.146 13.146 0 0 0 7.588-2.257 13.788 13.788 0 0 0 5.01-6.611 26.3 26.3 0 0 0 1.7-9.632 24.659 24.659 0 0 0-2.168-11 14.437 14.437 0 0 0-5.361-6.259 14.5 14.5 0 0 0-15 .41zm-181.816 23.037l-16.025-19.282.147 17.319q.146 11.37.322 12.131a1.726 1.726 0 0 0 .527.908q.644.587 4.365 1.231.44.059 1.318.264v1.729q-4.482-.323-7.559-.322-2.577 0-8.994.322v-1.729q1.025-.234 1.552-.351 3.515-.616 4.073-1.143a1.6 1.6 0 0 0 .469-.908 94.386 94.386 0 0 0 .409-10.2q.147-12.539.147-14.825a76.2 76.2 0 0 0-.202-8.166 1.5 1.5 0 0 0-.761-.981 27.95 27.95 0 0 0-5.539-1.219q-.528-.088-1.582-.322v-1.728q3.711.323 5.846.322 1.724 0 6.166-.322l8.32 10.4q1.142 1.377 17.636 21.358.03-4.1.03-5.947 0-4.366-.264-15.967a51.791 51.791 0 0 0-.278-5.889 1.818 1.818 0 0 0-.674-.85 16.182 16.182 0 0 0-4.087-1.055q-.468-.088-1.377-.322v-1.728q5.215.323 8.291.322 2.989 0 8.262-.322v1.729q-.791.205-1.172.264a28.7 28.7 0 0 0-4.365 1.084 1.374 1.374 0 0 0-.527.527 4.4 4.4 0 0 0-.41 1.758q-.03.558-.132 7.984t-.1 14.37q0 8.2.292 13.857l-1.9.878zm-198.911 9.612q-5.377-5.566-5.377-15.82 0-9.609 6.2-15.776t15.923-6.167q9.053 0 14.414 5.449t5.361 15q0 10.606-6.035 16.744t-15.882 6.136q-9.228 0-14.604-5.566zm7.749-32.649a13.307 13.307 0 0 0-5.083 6.655 26.383 26.383 0 0 0-1.626 9.309q0 9.675 4.234 14.528a13.6 13.6 0 0 0 10.708 4.853 13.15 13.15 0 0 0 7.588-2.257 13.792 13.792 0 0 0 5.009-6.611 26.28 26.28 0 0 0 1.7-9.632 24.659 24.659 0 0 0-2.168-11 14.431 14.431 0 0 0-5.361-6.259 14.5 14.5 0 0 0-15 .41zm441.562 37.015a39.64 39.64 0 0 0-4.981.322q-1.319-2.2-3.575-5.522t-2.753-3.941q-.294-.351-.557-.732l-6.445-8.848q-2.608-.059-5.274-.381l.235 14.765a1.9 1.9 0 0 0 .527 1.318q.7.586 4.394 1.26.528.088 1.612.351v1.729q-5.3-.323-9.346-.322-4.336 0-9.7.322v-1.729l1.26-.264q4.189-.791 4.76-1.3a2.638 2.638 0 0 0 .66-1.831q.058-.849.147-15.059l-.118-13.769a25.623 25.623 0 0 0-.161-3.633 1.108 1.108 0 0 0-.571-.7 15.525 15.525 0 0 0-4.541-1.26q-.468-.088-1.435-.293v-1.733q7.764.323 12.451.322 2.695 0 5.038-.059 3.106-.117 4.307-.117 5.712 0 8.613 2.7a9.659 9.659 0 0 1 2.871 7.355 10.88 10.88 0 0 1-5.071 9.523 18.356 18.356 0 0 1-5.1 2.081l9.759 12.712a28.447 28.447 0 0 0 2.285 2.783 6.515 6.515 0 0 0 1.905 1.055 40.7 40.7 0 0 0 5.539 1.493v1.729q-4.626-.327-6.735-.327zm-23.408-37.881l-.176 16.289q3.047.321 4.717.322 5.332 0 7.9-2.377a8.561 8.561 0 0 0 2.563-6.6 7.641 7.641 0 0 0-2.271-5.84q-2.269-2.142-6.606-2.143-1.557-.003-6.127.349zm-71.602 37.881q-4.512 0-9.9.322v-1.729a10.545 10.545 0 0 1 1.289-.292q4.159-.674 4.761-1.246t.6-2.885l-.058-1.465.087-10.751q0-16.582-.087-18.34a2.117 2.117 0 0 0-.627-1.494q-.568-.528-4.419-1.26-.525-.117-1.545-.381v-1.729q6.367.323 9.947.322 3.991 0 9.067-.322v1.729q-1.026.235-1.524.322-3.9.674-4.512 1.274a3.966 3.966 0 0 0-.615 2.681v1.025l-.147 11.777.087 17.109q0 2.051.6 2.607t4.116.967q.675.088 1.963.351v1.729q-4.718-.321-9.083-.321zm-17.578 0a39.651 39.651 0 0 0-4.981.322q-1.318-2.2-3.574-5.522t-2.754-3.941q-.293-.351-.557-.732l-6.445-8.848q-2.608-.059-5.273-.381l.234 14.765a1.908 1.908 0 0 0 .527 1.318q.7.586 4.395 1.26.527.088 1.611.351v1.729q-5.302-.321-9.346-.321-4.336 0-9.7.322v-1.729l1.26-.264q4.189-.791 4.761-1.3a2.638 2.638 0 0 0 .659-1.831q.058-.849.147-15.059l-.117-13.769a25.935 25.935 0 0 0-.161-3.633 1.114 1.114 0 0 0-.572-.7 15.532 15.532 0 0 0-4.541-1.26q-.468-.088-1.435-.293v-1.734q7.764.323 12.451.322 2.695 0 5.039-.059 3.105-.117 4.307-.117 5.713 0 8.613 2.7a9.659 9.659 0 0 1 2.871 7.355 10.88 10.88 0 0 1-5.071 9.523 18.349 18.349 0 0 1-5.1 2.081l9.758 12.712a28.238 28.238 0 0 0 2.286 2.783 6.509 6.509 0 0 0 1.9 1.055 40.74 40.74 0 0 0 5.539 1.493v1.729q-4.622-.327-6.731-.327zm-23.408-37.881l-.175 16.289q3.046.321 4.716.322 5.332 0 7.9-2.377a8.561 8.561 0 0 0 2.564-6.6 7.641 7.641 0 0 0-2.271-5.84q-2.271-2.142-6.607-2.143-1.557-.003-6.127.349zm-38.848 37.881q-6.153 0-13.594.322v-1.729l4.746-1.025a3.119 3.119 0 0 0 1.407-.644 4.1 4.1 0 0 0 .439-2.315v-.527l.147-6.885q.028-1.991.029-7.822 0-8.467-.059-12.407a21.626 21.626 0 0 0-.292-4.468 1.389 1.389 0 0 0-.543-.572 15.141 15.141 0 0 0-2.71-.747l-3.163-.7v-1.731q5.507.323 13.154.322 4.189 0 19.922-.322a85.179 85.179 0 0 0 .7 10.02h-2.05a30.96 30.96 0 0 0-1.9-5.3 2.507 2.507 0 0 0-1.231-1.2 14.617 14.617 0 0 0-4.277-.382h-11.838l-.205 9.434-.088 5.772h7.09a27.7 27.7 0 0 0 4.834-.22 2.145 2.145 0 0 0 1.186-.894 15.022 15.022 0 0 0 1.129-3.9q.088-.323.264-1h1.933q-.323 4.833-.322 7.441 0 2.7.322 7.383h-1.937q-.85-4.248-1.055-4.746a1.827 1.827 0 0 0-1.026-1.011 16.794 16.794 0 0 0-4.365-.308h-8.024l.147 17.226h12.275l1.084-.029a14.136 14.136 0 0 0 3.164-.205 4.839 4.839 0 0 0 1.963-1.274 32.276 32.276 0 0 0 3.135-5.054q.235-.41.7-1.2h2.021q-.351.938-3.632 11.016-10.661-.319-19.48-.319zm-35.185 0q-4.307 0-8.818.322v-1.729q1.025-.263 1.553-.351 4.013-.675 4.629-1.143a1.43 1.43 0 0 0 .4-.659q.131-.425.22-6.49.116-9.374.117-13.886 0-7.881-.117-13.887h-6.973l-1.259.029a4.5 4.5 0 0 0-2.2.352 4.228 4.228 0 0 0-1.465 2.11 49.924 49.924 0 0 0-1.523 5.508h-2.256q.558-5.1 1-11.426 12.968.323 18.5.322 4.6 0 16.744-.322.381 6.534.879 11.426h-2.2q-1.373-5.362-1.783-6.285a2.591 2.591 0 0 0-1.184-1.319 11.371 11.371 0 0 0-3.931-.4h-6.49q-.235 7.792-.234 19.277 0 10.664.234 14.414a1.674 1.674 0 0 0 .439 1.2q.5.41 4.834 1.26.41.059 1.231.264v1.729q-5.806-.316-10.347-.316zm-78.194 0q-4.512 0-9.9.322v-1.729a10.545 10.545 0 0 1 1.289-.292q4.161-.674 4.761-1.246t.6-2.885l-.059-1.465.088-10.751q0-16.582-.088-18.34a2.117 2.117 0 0 0-.627-1.494q-.568-.528-4.419-1.26-.525-.117-1.545-.381v-1.729q6.367.323 9.947.322 3.991 0 9.067-.322v1.729q-1.026.235-1.524.322-3.9.674-4.512 1.274a3.966 3.966 0 0 0-.615 2.681v1.025l-.147 11.777.088 17.109q0 2.051.6 2.607t4.116.967q.675.088 1.963.351v1.729q-4.718-.321-9.083-.321zm-35.128 0q-2.577 0-8.789.322v-1.729a15.557 15.557 0 0 0 4.131-1.172 1.266 1.266 0 0 0 .586-1.025 6.433 6.433 0 0 0-.616-2.08l-2.976-7.149q-6.211-.059-9.04-.059l-8.019.059-3.081 7.412a8.757 8.757 0 0 0-.761 2.226.739.739 0 0 0 .366.63 17.9 17.9 0 0 0 3.413.894q.323.088.908.264v1.729q-5.01-.323-7.06-.322-2.607 0-6.68.322v-1.729a10.434 10.434 0 0 0 3.662-1.318 6.636 6.636 0 0 0 1.524-1.875q1.67-2.9 8.5-18.662l8.057-18.691h1.846q3.955 10.166 9.726 23.057l6.827 14.912a3.623 3.623 0 0 0 1.025 1.172 32.544 32.544 0 0 0 4.306 1.406v1.729q-5.333-.323-7.855-.323zm-23.6-15.762q4.068.116 5.825.117.527 0 8.986-.117l-7.411-17.575zm-61.626 14.355q4.776-.909 5.317-1.084a1.953 1.953 0 0 0 .777-.41 1.257 1.257 0 0 0 .322-.644 43.89 43.89 0 0 0 .205-4.981q.176-9.522.175-13.857l-.175-12.832.03-1q0-1.465-.85-1.875a45.228 45.228 0 0 0-5.8-1.436v-1.724q5.8.323 12.627.322l13.066-.175q6.651 0 10.621 1.919a13.53 13.53 0 0 1 6.167 6.108 20.72 20.72 0 0 1 2.2 9.756 22.443 22.443 0 0 1-6.972 16.934q-6.973 6.68-18.721 6.68-.674 0-5.361-.161t-5.508-.161q-2.842 0-8.115.352zm12.51-36.474q-.176 7.7-.176 17.461 0 10.313.176 17.256a66.964 66.964 0 0 0 7.969.586 18.591 18.591 0 0 0 8.262-1.611 16.089 16.089 0 0 0 7.075-6.915 23.51 23.51 0 0 0 2.417-11.162 23.245 23.245 0 0 0-.806-6.314 12.945 12.945 0 0 0-2.154-4.556 12.515 12.515 0 0 0-5.127-3.852 24.458 24.458 0 0 0-9.14-1.333q-3.601.001-8.493.44zm-71.892 37.881q-4.1 0-9.7.322v-1.729q1.143-.293 1.729-.41a24.585 24.585 0 0 0 4.087-.952 1.4 1.4 0 0 0 .689-.776 23.571 23.571 0 0 0 .264-4.747v-25.576q-2.664 5.274-12.03 25.4-2.576 5.538-3.805 8.467h-1.669q-6.557-14.561-16.07-33.868l.381 27.305q0 3.252.527 3.721t4.424 1.143q.439.088 1.347.292v1.729q-5.068-.323-8.2-.322t-8.292.322v-1.729a11.336 11.336 0 0 1 1.26-.292q3.868-.763 4.336-1.319.7-.821.733-4.014l.146-6.592q.147-9.023.147-17.491l-.029-3.574a8.01 8.01 0 0 0-.264-2.681 1.546 1.546 0 0 0-.85-.776 29.174 29.174 0 0 0-4.981-1.025q-.558-.089-1.641-.352v-1.726q4.894.323 7.443.322 2.9 0 6.241-.322 1.2 3.078 1.931 4.691.964 2.169 7.631 16.445 2.836 6.068 5.731 11.843l12.5-26.324q1.142-2.434 2.723-6.655 3.927.323 6.008.322 1.935 0 6.536-.322v1.729q-.879.235-1.319.322a19 19 0 0 0-4.54 1.2q-.761.586-.762 2.958v.382l-.117 9.287q0 17.519.147 21.269a1.579 1.579 0 0 0 .454 1.172q.424.382 4.995 1.26.381.059 1.142.264v1.729q-5.269-.322-9.283-.322zm610.62-128.827q-26.88-27.832-26.88-79.1 0-48.047 30.982-78.882t79.615-30.835q45.263 0 72.07 27.247t26.807 75q0 53.028-30.176 83.716t-79.394 30.688q-46.145-.001-73.024-27.834zm38.745-163.247q-17.285 11.509-25.415 33.278a131.963 131.963 0 0 0-8.13 46.544q0 48.376 21.167 72.639t53.54 24.262q21.387 0 37.939-11.288t25.049-33.058q8.5-21.769 8.5-48.156 0-33.133-10.84-54.977t-26.807-31.3a72.508 72.508 0 0 0-75 2.053zM239.123 206.89l-80.127-96.411.733 86.593q.733 56.847 1.612 60.658a8.64 8.64 0 0 0 2.636 4.541q3.222 2.932 21.827 6.154 2.2.293 6.592 1.319v8.643q-22.414-1.608-37.794-1.608-12.891 0-44.971 1.611v-8.643q5.127-1.172 7.763-1.758 17.578-3.077 20.362-5.713a7.972 7.972 0 0 0 2.344-4.541q1.465-6.738 2.051-50.977.733-62.7.733-74.12 0-36.769-1.026-40.87a7.535 7.535 0 0 0-3.808-4.907q-3.224-1.977-27.687-6.082-2.637-.439-7.91-1.611v-8.639q18.557 1.612 29.226 1.611 8.622 0 30.833-1.611l41.6 52q5.712 6.885 88.183 106.787.147-20.508.147-29.736 0-21.827-1.319-79.834-.586-27.1-1.391-29.443a9.075 9.075 0 0 0-3.369-4.248q-2.564-1.9-20.434-5.274-2.345-.439-6.885-1.611v-8.641q26.074 1.612 41.455 1.611 14.942 0 41.308-1.611v8.643q-3.957 1.026-5.857 1.318-19.629 4.1-21.826 5.42a6.838 6.838 0 0 0-2.637 2.637q-1.465 2.344-2.051 8.789-.146 2.784-.659 39.917t-.513 71.851q0 41.016 1.465 69.287l-9.522 4.395zm652 69.89q-20.508 0-48.487 1.611v-8.643q5.713-1.465 8.643-2.05 17.871-3.37 20.435-4.761a7.011 7.011 0 0 0 3.443-3.882q1.319-4.248 1.318-23.73V107.443q-13.319 26.367-60.152 127-12.873 27.688-19.026 42.336h-8.347q-32.782-72.8-80.348-169.336l1.9 136.523q0 16.261 2.637 18.6t22.119 5.713q2.2.439 6.738 1.464v8.643q-25.334-1.607-41.008-1.607t-41.455 1.611v-8.643a56.438 56.438 0 0 1 6.3-1.464q19.336-3.81 21.68-6.592 3.515-4.1 3.662-20.068l.733-32.959q.732-45.117.733-87.451l-.147-17.871q0-10.693-1.318-13.4a7.73 7.73 0 0 0-4.248-3.882q-5.566-2.2-24.9-5.127-2.784-.439-8.2-1.758v-8.646q24.467 1.612 37.214 1.611 14.5 0 31.206-1.611 5.994 15.39 9.65 23.451 4.825 10.847 38.159 82.226 14.182 30.341 28.656 59.214L861.23 103.8q5.711-12.165 13.616-33.27 19.638 1.612 30.043 1.611 9.673 0 32.68-1.611v8.643q-4.394 1.172-6.592 1.611-20.362 4.1-22.705 6.007-3.808 2.93-3.809 14.794v1.9l-.586 46.436q0 87.6.733 106.348.146 3.955 2.271 5.86t24.975 6.3a58.582 58.582 0 0 1 5.713 1.319v8.643q-26.376-1.612-46.444-1.612zm-290.918 0q-22.559 0-49.512 1.611v-8.643a52.8 52.8 0 0 1 6.445-1.464q20.8-3.37 23.8-6.226t3-14.429l-.292-7.324.439-53.76q0-82.91-.439-91.7a10.6 10.6 0 0 0-3.135-7.47q-2.844-2.638-22.1-6.3-2.626-.586-7.729-1.9v-8.646q31.834 1.612 49.734 1.611 19.953 0 45.334-1.611v8.643q-5.113 1.171-7.6 1.607-19.483 3.37-22.559 6.372t-3.076 13.4v5.127l-.733 58.886.439 85.547q0 10.255 3 13.037t20.581 4.834q3.368.44 9.815 1.758v8.643q-23.584-1.604-45.41-1.604zm-159.229 0q-21.533 0-44.092 1.611v-8.643q5.127-1.318 7.764-1.758 20.068-3.37 23.144-5.713a7.105 7.105 0 0 0 1.977-3.3q.659-2.124 1.1-32.446.586-46.875.586-69.433 0-39.405-.586-69.434h-34.861l-6.3.147q-8.35 0-10.986 1.758-4.1 2.491-7.324 10.547-2.491 6.152-7.618 27.539h-11.278q2.784-25.489 4.981-57.129 64.838 1.612 92.5 1.611 22.98 0 83.721-1.611 1.9 32.666 4.394 57.129h-10.987q-6.869-26.807-8.915-31.421a12.956 12.956 0 0 0-5.92-6.592q-3.873-1.978-19.659-1.977h-32.449q-1.172 38.965-1.172 96.386 0 53.321 1.172 72.071.293 4.394 2.2 6.006 2.491 2.051 24.17 6.3 2.051.293 6.152 1.319v8.643q-29.007-1.611-51.712-1.611zm-390.964-.001q-22.562 0-49.512 1.611v-8.643a52.8 52.8 0 0 1 6.445-1.464q20.8-3.37 23.8-6.226t3-14.429l-.292-7.324.439-53.76q0-82.91-.439-91.7a10.607 10.607 0 0 0-3.135-7.47q-2.844-2.638-22.1-6.3-2.626-.586-7.729-1.9v-8.645q31.834 1.612 49.733 1.611 19.954 0 45.335-1.611v8.643q-5.116 1.171-7.607 1.607-19.483 3.37-22.559 6.372t-3.076 13.4v5.127l-.733 58.886.439 85.547q0 10.255 3 13.037t20.58 4.834q3.37.44 9.815 1.758v8.643q-23.578-1.604-45.404-1.604zm603.438-220.5v-9h522v9zM56.31 51.633a616.65 616.65 0 0 0-41.455-48.34L16.906.51q13.33.293 14.355.293 5.127 0 15.381-.293 8.35 24.169 18.308 51.123z" fill="#fff" stroke="rgba(0,0,0,0)"/></svg>