<?xml version="1.0"?>
<svg xmlns="http://www.w3.org/2000/svg" xmlns:xlink="http://www.w3.org/1999/xlink" version="1.1" id="Layer_1" x="0px" y="0px" viewBox="0 0 512 512" style="enable-background:new 0 0 512 512;" xml:space="preserve" width="1em" height="1em" class=""><g><g>
	<g>
		<path d="M484.326,83.987c-1.292-3.908-4.97-6.313-8.883-6.227c-0.259,0-0.511-0.036-0.773-0.014    c-1.094,0.091-110.586,9.112-218.67,9.112c-108.054,0-217.792-9.02-218.888-9.112c-4.224-0.356-8.113,2.23-9.439,6.241    C26.544,87.405,0,168.727,0,260.572c0,92.508,27.013,148.03,28.163,150.348c0.887,1.788,2.335,3.237,4.122,4.125    c1.58,0.786,39.359,19.241,95.715,19.241c55.974,0,102.033-18.166,103.967-18.94c2.252-0.901,4.054-2.659,5.009-4.887L256,366.069    l19.024,44.391c0.955,2.229,2.757,3.987,5.009,4.887c1.933,0.773,47.992,18.94,103.967,18.94    c56.356,0,94.134-18.455,95.714-19.241c1.787-0.888,3.234-2.337,4.122-4.125c1.15-2.318,28.164-57.84,28.164-150.348    C512,168.727,485.455,87.404,484.326,83.987z M310.857,104.45c72.674-1.751,137.224-6.323,158.192-7.92    c1.758,5.96,4.456,15.61,7.443,28.07c-21.45,3.141-89.419,12.41-165.635,15.828V104.45z M228.571,104.959    c9.111,0.118,18.275,0.184,27.429,0.184c12.225,0,24.467-0.115,36.571-0.319v36.302c-12.051,0.377-24.229,0.588-36.388,0.588    c-9.215,0-18.439-0.123-27.612-0.346V104.959z M42.947,96.545c22.12,1.679,91.199,6.544,167.339,8.107v36.142    c-80.149-3.082-152.906-13.038-174.759-16.245C38.498,112.149,41.191,102.506,42.947,96.545z M468.739,399.949    c-9.348,4.008-41.081,16.051-84.739,16.051c-43.921,0-82.276-12.304-93.715-16.356l-20.85-48.652    c49.123-7.189,87.137-53.181,87.137-108.707c0-5.049-4.094-9.143-9.143-9.143s-9.143,4.094-9.143,9.143    c0,50.393-36.883,91.393-82.23,91.427c-0.008,0-0.015,0-0.023,0c-0.011,0-0.022,0.001-0.033,0.001c-0.005,0-0.011,0-0.017,0    c-0.015,0-0.029-0.001-0.044-0.001c-45.345-0.037-82.225-41.035-82.225-91.427c0-5.049-4.094-9.143-9.143-9.143    c-5.049,0-9.143,4.094-9.143,9.143c0,55.525,38.014,101.517,87.137,108.707l-20.851,48.652    c-11.446,4.055-49.798,16.356-93.715,16.356c-43.461,0-75.388-12.075-84.755-16.067c-5.297-12.183-24.96-62.599-24.96-139.362    c0-44.271,6.583-86.651,13.217-118.134c24.319,3.601,125.063,17.563,224.68,17.563c99.167,0,199.441-13.835,224.336-17.512    c6.627,31.456,13.195,73.796,13.195,118.083C493.714,337.081,474.014,387.756,468.739,399.949z" data-original="#000000" class="active-path" data-old_color="#F6F3F3" fill="#FFFBFB"/>
	</g>
</g></g> </svg>
