<svg xmlns="http://www.w3.org/2000/svg" width="537" height="88" viewBox="0 0 537 88">
  <defs>
    <style>
      .cls-1 {
        fill: #ebebeb;
        fill-rule: evenodd;
      }
    </style>
  </defs>
  <path id="Forme_704" data-name="Forme 704" class="cls-1" d="M990.192,580.848H960.939v44.638H991v-6.425H968.084V604.925h16.581V598.7H968.084v-11.43h22.108v-6.424Zm-37.408,0h-8.157l-9.772,15.825-9.774-15.825H916.86l14.085,21.913-15.03,22.725h8.223l10.717-16.57,10.784,16.57h8.155l-14.9-22.725Zm-41.855,0H881.676v44.638h30.061v-6.425H888.821V604.925H905.4V598.7H888.821v-11.43h22.108v-6.424Zm-56.82,0h-7.145v44.638h27.5v-6.425H854.109V580.848Zm-30.33,6.357a7.838,7.838,0,0,1,5.863,2.064,7.254,7.254,0,0,1,2.023,5.307,7.144,7.144,0,0,1-2.023,5.277,7.924,7.924,0,0,1-5.863,2.029h-8.964V587.205h8.964Zm-16.109-6.357v44.638h7.145V608.239h9.03a18.187,18.187,0,0,0,6.235-1.014,14.067,14.067,0,0,0,4.787-2.84,12.533,12.533,0,0,0,3.065-4.328,14.785,14.785,0,0,0,0-11.094,12.543,12.543,0,0,0-3.065-4.328,13.659,13.659,0,0,0-4.787-2.807,18.743,18.743,0,0,0-6.235-.98H807.67Zm-11.188-.745h-2.425L775.32,605.061,756.649,580.1h-2.427v45.383h7.144V597.417l12.807,16.843h2.358l12.807-16.775v28h7.144V580.1Zm-67.8,7.813a15.588,15.588,0,0,1,8.425,8.656,17.3,17.3,0,0,1,1.214,6.527,17.741,17.741,0,0,1-1.214,6.63,15.615,15.615,0,0,1-14.76,9.94,16.051,16.051,0,0,1-6.37-1.249,15.246,15.246,0,0,1-5.055-3.45,15.93,15.93,0,0,1-3.338-5.241,17.76,17.76,0,0,1-1.212-6.63,17.573,17.573,0,0,1,1.212-6.56,15.21,15.21,0,0,1,8.393-8.623,16.07,16.07,0,0,1,6.37-1.251,15.833,15.833,0,0,1,6.335,1.251m-15.5-6.055a23.088,23.088,0,0,0-7.415,4.871,23.376,23.376,0,0,0-4.987,25.533,23.085,23.085,0,0,0,4.954,7.338,22.561,22.561,0,0,0,7.415,4.869,23.8,23.8,0,0,0,9.132,1.759,23.551,23.551,0,0,0,16.513-6.6,22.761,22.761,0,0,0,6.876-16.469,22.439,22.439,0,0,0-1.853-9.1,22.967,22.967,0,0,0-12.436-12.208,24.429,24.429,0,0,0-18.2,0m-51.9-7.79a27.175,27.175,0,0,0-8.738,5.74,27.673,27.673,0,0,0-5.878,30.172,26.417,26.417,0,0,0,5.878,8.609,27.5,27.5,0,0,0,8.738,5.7,27.971,27.971,0,0,0,10.8,2.071,26.564,26.564,0,0,0,13.267-3.308,24.727,24.727,0,0,0,9.213-8.808l-6.355-4.7a20.536,20.536,0,0,1-6.831,6.7,17.928,17.928,0,0,1-9.294,2.392,18.912,18.912,0,0,1-7.508-1.474,18.3,18.3,0,0,1-9.969-10.2,21.835,21.835,0,0,1,0-15.544,18.3,18.3,0,0,1,9.969-10.2,18.93,18.93,0,0,1,7.508-1.475,17.946,17.946,0,0,1,9.294,2.391,20.552,20.552,0,0,1,6.831,6.7l6.355-4.7a25.457,25.457,0,0,0-9.254-8.808A26.357,26.357,0,0,0,672.078,572a27.972,27.972,0,0,0-10.8,2.072m-61.605,6.877a13.731,13.731,0,0,0-4.448,2.436,11.641,11.641,0,0,0-3.034,3.822,11.067,11.067,0,0,0-1.111,5,10.487,10.487,0,0,0,.808,4.227,11.39,11.39,0,0,0,2.224,3.348,16.063,16.063,0,0,0,3.3,2.639,42.349,42.349,0,0,0,4.044,2.163l4.92,2.3q1.482,0.677,2.663,1.319a12.309,12.309,0,0,1,2.055,1.386,5.253,5.253,0,0,1,1.348,1.727,5.15,5.15,0,0,1,.472,2.264,5.479,5.479,0,0,1-2.123,4.567,8.778,8.778,0,0,1-5.56,1.656,11.945,11.945,0,0,1-3.808-.576,12.31,12.31,0,0,1-3.134-1.554,15.425,15.425,0,0,1-2.6-2.267,21.7,21.7,0,0,1-2.123-2.705l-5.055,3.854a19.33,19.33,0,0,0,6.874,7.069,18.8,18.8,0,0,0,9.909,2.6,18.525,18.525,0,0,0,5.9-.913,14.815,14.815,0,0,0,4.751-2.57,11.7,11.7,0,0,0,3.169-4.058,12.332,12.332,0,0,0,1.147-5.378,10.908,10.908,0,0,0-.742-4.125,11.7,11.7,0,0,0-2.09-3.349,15.813,15.813,0,0,0-3.37-2.8,38.379,38.379,0,0,0-4.517-2.435l-4.987-2.3-2.5-1.25a9.222,9.222,0,0,1-1.955-1.285,5.544,5.544,0,0,1-1.28-1.624,4.753,4.753,0,0,1-.471-2.2,4.541,4.541,0,0,1,2.023-4.092,8.446,8.446,0,0,1,4.717-1.319,10,10,0,0,1,5.258,1.421,13.354,13.354,0,0,1,4.112,3.99l4.987-3.854a16.416,16.416,0,0,0-5.729-5.717A16.237,16.237,0,0,0,605.1,580.1a16.99,16.99,0,0,0-5.426.845m-53.484-.845h-2.427v45.383h7.147V595.32L578,626.231h2.427V580.848h-7.147v30.165Zm-30.329,13.325,7.347,18.464H508.374Zm1.212-13.325h-2.427l-19.612,45.383h7.617l3.167-7.439h20.018L529,625.486h7.683ZM467.146,573a16.2,16.2,0,0,0-5.242,2.87,13.712,13.712,0,0,0-3.575,4.5,13.04,13.04,0,0,0-1.311,5.9,12.37,12.37,0,0,0,.954,4.982,13.452,13.452,0,0,0,2.62,3.946,18.947,18.947,0,0,0,3.893,3.109,49.99,49.99,0,0,0,4.766,2.55l5.8,2.711q1.745,0.8,3.138,1.553a14.45,14.45,0,0,1,2.422,1.636,6.179,6.179,0,0,1,1.589,2.032,6.113,6.113,0,0,1,.556,2.67,6.449,6.449,0,0,1-2.5,5.381,10.341,10.341,0,0,1-6.553,1.952,14.1,14.1,0,0,1-4.488-.676,14.534,14.534,0,0,1-3.694-1.834,18.185,18.185,0,0,1-3.058-2.67,25.909,25.909,0,0,1-2.5-3.189L454,614.965a22.793,22.793,0,0,0,8.1,8.329,22.126,22.126,0,0,0,11.678,3.069,21.778,21.778,0,0,0,6.949-1.075,17.475,17.475,0,0,0,5.6-3.03,13.768,13.768,0,0,0,3.734-4.782,14.536,14.536,0,0,0,1.351-6.338,12.84,12.84,0,0,0-.874-4.862,13.706,13.706,0,0,0-2.463-3.946,18.662,18.662,0,0,0-3.971-3.309,45.63,45.63,0,0,0-5.323-2.869l-5.878-2.71-2.94-1.475a10.746,10.746,0,0,1-2.3-1.515,6.5,6.5,0,0,1-1.508-1.913,5.565,5.565,0,0,1-.556-2.59,5.351,5.351,0,0,1,2.382-4.823,9.942,9.942,0,0,1,5.561-1.554,11.784,11.784,0,0,1,6.2,1.674,15.683,15.683,0,0,1,4.845,4.7l5.88-4.543a19.337,19.337,0,0,0-6.752-6.737A19.128,19.128,0,0,0,473.541,572a20.068,20.068,0,0,0-6.395,1m523.129,71.227H980.11v15.514h10.447V657.5h-7.965v-4.913h5.763v-2.161h-5.763v-3.973h7.683v-2.233Zm-26.232,0H961.56v15.514h2.483V644.222Zm-23.869,2.21a2.768,2.768,0,0,1,2.049.716,2.5,2.5,0,0,1,.715,1.846,2.463,2.463,0,0,1-.715,1.834,2.8,2.8,0,0,1-2.049.7h-3.091v-5.1h3.091Zm-5.575-2.21v15.514h2.484v-5.994h2.811l4.427,5.994h2.833l-4.661-6.394a4.636,4.636,0,0,0,2.2-1.681,4.575,4.575,0,0,0,.8-2.691,4.835,4.835,0,0,0-.375-1.927,4.368,4.368,0,0,0-1.065-1.5,4.736,4.736,0,0,0-1.663-.975,6.526,6.526,0,0,0-2.168-.342H934.6Zm-15.342,0H909.092v15.514h10.447V657.5h-7.965v-4.913h5.763v-2.161h-5.763v-3.973h7.683v-2.233Zm-35.825.352a7.855,7.855,0,0,0-2.576,1.693,8.019,8.019,0,0,0-1.722,2.551,7.968,7.968,0,0,0,4.3,10.565,8.4,8.4,0,0,0,3.221.611,8.73,8.73,0,0,0,2.284-.294,8.141,8.141,0,0,0,2.014-.835,7.9,7.9,0,0,0,2.916-2.96v-4.373h-7.262v2.21h4.78v1.668a5.238,5.238,0,0,1-1.886,1.7,5.64,5.64,0,0,1-2.753.647,5.923,5.923,0,0,1-2.307-.435,5.282,5.282,0,0,1-1.791-1.211,5.507,5.507,0,0,1-1.171-1.844,6.239,6.239,0,0,1-.423-2.315,6.141,6.141,0,0,1,.411-2.268,5.391,5.391,0,0,1,1.147-1.81,5.316,5.316,0,0,1,1.757-1.2,5.7,5.7,0,0,1,2.26-.435,5.305,5.305,0,0,1,2.648.646,6.065,6.065,0,0,1,1.967,1.8l1.8-1.482a7.625,7.625,0,0,0-2.728-2.4,7.832,7.832,0,0,0-3.666-.847,8.423,8.423,0,0,0-3.221.61m-31.983-.61h-0.844v15.772h2.482V649.253l9.417,10.741h0.843V644.222h-2.483v10.484Zm-16.912.258h-2.482v15.514h2.482V644.222Zm-24.243,0h-2.482v15.514h9.556V657.5h-7.074v-13.28Z" transform="translate(-454 -572)"/>
</svg>
